<svg width="125" height="144" viewBox="0 0 125 144" fill="none" xmlns="http://www.w3.org/2000/svg">
<g clip-path="url(#clip0)">
<path d="M8.39233e-05 108L125 36L62.5001 0L8.39233e-05 36V108Z" fill="#09D8C4"/>
<path d="M1.40997e-05 108L-6.739e-05 72L93.75 18L125 36.0001L125 72.0003L31.2501 126" fill="url(#paint0_linear)"/>
<path d="M7.62939e-06 108L125 36L125 108L62.5 144L7.62939e-06 108Z" fill="url(#paint1_linear)"/>
<path d="M31.2501 126L125 72.0002L125 108L62.5 144L31.2501 126Z" fill="url(#paint2_linear)"/>
</g>
<defs>
<linearGradient id="paint0_linear" x1="46.875" y1="45" x2="62.4452" y2="72.0317" gradientUnits="userSpaceOnUse">
<stop stop-color="#0E8990"/>
<stop offset="0.25" stop-color="#11A0A7"/>
</linearGradient>
<linearGradient id="paint1_linear" x1="62.5" y1="72" x2="78.0703" y2="99.0317" gradientUnits="userSpaceOnUse">
<stop stop-color="#19466B"/>
<stop offset="0.25" stop-color="#1E5480"/>
</linearGradient>
<linearGradient id="paint2_linear" x1="78.1251" y1="99.0002" x2="93.6952" y2="126.032" gradientUnits="userSpaceOnUse">
<stop stop-color="#1C2759"/>
<stop offset="0.25" stop-color="#22306D"/>
</linearGradient>
<clipPath id="clip0">
<rect width="125" height="144" fill="white"/>
</clipPath>
</defs>
</svg>
